<?xml version="1.0" standalone="no"?>
<!DOCTYPE svg PUBLIC "-//W3C//DTD SVG 1.1//EN" "http://www.w3.org/Graphics/SVG/1.1/DTD/svg11.dtd" >
<svg xmlns="http://www.w3.org/2000/svg" xmlns:xlink="http://www.w3.org/1999/xlink" version="1.1">
<metadata>
Created by FontForge 20170731 at Mon Feb 17 19:01:52 2020
 By Aleksey,,,
Copyright (c) 2019 by Ryoichi Tsunekawa. All rights reserved. |DCNT
</metadata>
<defs>
<font id="BebasNeuePro-Regular" horiz-adv-x="819" >
  <font-face 
    font-family="Bebas Neue Pro"
    font-weight="400"
    font-stretch="normal"
    units-per-em="2048"
    panose-1="2 11 5 6 2 2 2 5 2 1"
    ascent="1661"
    descent="-387"
    x-height="1030"
    cap-height="1434"
    bbox="-66 -424 1485 1864"
    underline-thickness="122"
    underline-position="-895"
    unicode-range="U+000D-FB02"
  />
<missing-glyph horiz-adv-x="748" 
d="M68 0v1365h544v-1365h-544zM136 68h408v1229h-408v-1229z" />
    <glyph glyph-name="uniFB01" unicode="fi" horiz-adv-x="886" 
d="M35 899v131h131v191q0 233 225 233q71 0 115 -20v-134q-46 17 -86 17q-54 0 -77.5 -26t-23.5 -89v-172h187v-131h-187v-899h-153v899h-131zM635 0v1030h153v-1030h-153zM635 1178v221h153v-221h-153z" />
    <glyph glyph-name="uniFB02" unicode="fl" horiz-adv-x="886" 
d="M35 899v131h131v191q0 233 225 233q71 0 115 -20v-134q-46 17 -86 17q-54 0 -77.5 -26t-23.5 -89v-172h187v-131h-187v-899h-153v899h-131zM635 0v1434h153v-1434h-153z" />
    <glyph glyph-name=".notdef" horiz-adv-x="748" 
d="M68 0v1365h544v-1365h-544zM136 68h408v1229h-408v-1229z" />
    <glyph glyph-name="glyph1" horiz-adv-x="0" 
 />
    <glyph glyph-name="glyph2" horiz-adv-x="682" 
 />
    <glyph glyph-name="uni000D" unicode="&#xd;" horiz-adv-x="333" 
 />
    <glyph glyph-name="space" unicode=" " horiz-adv-x="333" 
 />
    <glyph glyph-name="exclam" unicode="!" horiz-adv-x="405" 
d="M123 0v207h162v-207h-162zM123 762v674h160v-674l-19 -402h-121z" />
    <glyph glyph-name="quotedbl" unicode="&#x22;" horiz-adv-x="593" 
d="M88 1434h164l-39 -416h-88zM342 1434h164l-39 -416h-86z" />
    <glyph glyph-name="numbersign" unicode="#" 
d="M45 436l10 109h117l43 426h-119l10 108h121l35 357h121l-35 -357h195l37 357h120l-36 -357h114l-12 -108h-113l-43 -426h113l-10 -109h-113l-45 -436h-121l43 436h-194l-45 -436h-123l47 436h-117zM293 545h196l41 426h-194z" />
    <glyph glyph-name="dollar" unicode="$" 
d="M88 354v88h152v-98q0 -84 44 -129t124 -45q79 0 122 45t43 131q0 88 -43 152q-41 69 -155 157h-29v23q-141 111 -197.5 200.5t-56.5 206.5q0 134 65.5 218t188.5 104v119h133v-119q121 -19 185.5 -104t64.5 -222v-45h-151v56q0 133 -99 163v-481q144 -114 199 -205
q55 -88 55 -213q0 -137 -66 -222.5t-188 -104.5v-142h-133v140q-126 17 -192 101.5t-66 225.5zM252 1096q0 -113 94 -207v364q-94 -34 -94 -157z" />
    <glyph glyph-name="percent" unicode="%" horiz-adv-x="1165" 
d="M57 860v369q0 109 54.5 168t156.5 59q100 0 155.5 -59.5t55.5 -167.5v-369q0 -109 -54 -167t-157 -58t-157 58t-54 167zM168 852q0 -119 100 -119q101 0 101 119v385q0 119 -101 119q-100 0 -100 -119v-385zM248 0l559 1434h108l-557 -1434h-110zM688 207v368
q0 109 54.5 167.5t156.5 58.5t156.5 -58.5t54.5 -167.5v-368q0 -108 -55.5 -167.5t-155.5 -59.5q-102 0 -156.5 59t-54.5 168zM799 199q0 -119 100 -119t100 119v385q0 118 -100 118t-100 -118v-385z" />
    <glyph glyph-name="ampersand" unicode="&#x26;" horiz-adv-x="843" 
d="M82 279v170q0 234 170 290v4q-166 58 -166 289v76q0 168 81.5 257t238.5 89q321 0 321 -348v-45h-149v59q0 191 -166 191q-170 0 -170 -199v-113q0 -194 182 -194h369v-141h-66v-383q0 -178 25 -281h-144q-9 21 -18 137q-71 -157 -252 -157q-256 0 -256 299zM238 291
q0 -172 149 -172q84 0 135 60t51 167v318h-151q-184 0 -184 -215v-158z" />
    <glyph glyph-name="quotesingle" unicode="'" horiz-adv-x="337" 
d="M88 1434h164l-39 -416h-88z" />
    <glyph glyph-name="parenleft" unicode="(" horiz-adv-x="540" 
d="M121 88v1055q0 151 66 221t223 70h59v-123h-49q-77 0 -113.5 -37.5t-36.5 -130.5v-1055q0 -88 35 -129t115 -41h49v-123h-59q-148 0 -218.5 67t-70.5 226z" />
    <glyph glyph-name="parenright" unicode=")" horiz-adv-x="540" 
d="M72 -82h49q78 0 114.5 38t36.5 132v1055q0 88 -34 128t-117 40h-49v123h59q150 0 219.5 -66.5t69.5 -224.5v-1055q0 -152 -66 -222.5t-223 -70.5h-59v123z" />
    <glyph glyph-name="asterisk" unicode="*" horiz-adv-x="833" 
d="M47 1114l41 125l291 -121l-29 316h133l-28 -316l290 119l41 -125l-305 -68l203 -235l-106 -78l-162 268l-160 -268l-106 78l202 235z" />
    <glyph glyph-name="plus" unicode="+" 
d="M61 555v123h287v289h123v-289h287v-123h-287v-293h-123v293h-287z" />
    <glyph glyph-name="comma" unicode="," horiz-adv-x="374" 
d="M94 -221l70 221h-58v207h162v-191l-100 -237h-74z" />
    <glyph glyph-name="hyphen" unicode="-" horiz-adv-x="542" 
d="M61 549v131h420v-131h-420z" />
    <glyph glyph-name="period" unicode="." horiz-adv-x="374" 
d="M106 0v207h162v-207h-162z" />
    <glyph glyph-name="slash" unicode="/" horiz-adv-x="763" 
d="M31 -205l565 1639h139l-565 -1639h-139z" />
    <glyph glyph-name="zero" unicode="0" 
d="M82 334v768q0 170 85 261t243 91q160 0 244.5 -91t84.5 -261v-768q0 -171 -85 -262.5t-244 -91.5q-158 0 -243 92t-85 262zM242 324q0 -199 168 -199q170 0 170 199v788q0 197 -170 197q-168 0 -168 -197v-788z" />
    <glyph glyph-name="one" unicode="1" horiz-adv-x="567" 
d="M49 1126v119q123 1 191 46t104 145h111v-1436h-160v1171q-92 -42 -246 -45z" />
    <glyph glyph-name="two" unicode="2" horiz-adv-x="755" 
d="M59 0v123q0 166 60 289q63 123 194 260q129 135 181 223q53 92 53 201q0 213 -166 213q-170 0 -170 -197v-129h-152v119q0 168 82 260t244 92q157 0 239.5 -92.5t82.5 -259.5q0 -128 -63 -246t-208 -270q-113 -113 -170 -209q-49 -85 -49 -201v-31h473v-145h-631z" />
    <glyph glyph-name="three" unicode="3" horiz-adv-x="770" 
d="M53 330v108h152v-114q0 -199 170 -199q168 0 168 213v125q0 213 -181 213h-86v145h91q83 0 127.5 49.5t44.5 145.5v94q0 199 -164 199q-162 0 -162 -193v-84h-152v72q0 169 81 259.5t239 90.5q155 0 236 -90t81 -258v-57q0 -236 -168 -291v-4q172 -55 172 -291v-133
q0 -169 -81.5 -259.5t-241.5 -90.5q-162 0 -244 91.5t-82 258.5z" />
    <glyph glyph-name="four" unicode="4" horiz-adv-x="815" 
d="M39 289v147l446 998h179v-1000h114v-145h-114v-289h-160v289h-465zM188 434h316v717z" />
    <glyph glyph-name="five" unicode="5" horiz-adv-x="780" 
d="M68 334v96h151v-108q0 -197 170 -197q168 0 168 197v309q0 192 -158 192q-144 0 -174 -157v-13h-151l41 781h569v-146h-428l-23 -436q71 117 226 117q258 0 258 -326v-309q0 -169 -82.5 -261.5t-241.5 -92.5q-161 0 -243 92.5t-82 261.5z" />
    <glyph glyph-name="six" unicode="6" horiz-adv-x="802" 
d="M80 334v760q0 360 330 360q158 0 240.5 -90.5t82.5 -261.5v-27h-151v37q0 197 -168 197q-174 0 -174 -222v-323q70 141 235 141q262 0 262 -330v-241q0 -171 -84.5 -262.5t-242.5 -91.5q-159 0 -244.5 91.5t-85.5 262.5zM240 322q0 -197 170 -197q168 0 168 197v241
q0 197 -162 197q-81 0 -128.5 -57t-47.5 -154v-227z" />
    <glyph glyph-name="seven" unicode="7" horiz-adv-x="729" 
d="M35 1288v146h655v-142l-393 -1292h-166l401 1288h-497z" />
    <glyph glyph-name="eight" unicode="8" horiz-adv-x="811" 
d="M68 330v133q0 227 161 291v2q-153 70 -153 284v70q0 167 84.5 255.5t245.5 88.5t246 -88.5t85 -255.5v-70q0 -214 -155 -284v-2q163 -64 163 -291v-133q0 -167 -87.5 -258.5t-251.5 -91.5q-165 0 -251.5 91t-86.5 259zM227 338q0 -213 179 -213q180 0 180 213v139
q0 199 -180 199q-179 0 -179 -199v-139zM236 1010q0 -189 170 -189q84 0 128 49t44 140v104q0 195 -172 195q-170 0 -170 -195v-104z" />
    <glyph glyph-name="nine" unicode="9" horiz-adv-x="804" 
d="M66 860v242q0 170 84.5 261t244.5 91q158 0 243 -91t85 -261v-760q0 -362 -328 -362q-159 0 -241 90.5t-82 263.5v24h151v-34q0 -199 168 -199q88 0 130 53t42 170v324q-71 -144 -233 -144q-264 0 -264 332zM225 872q0 -198 162 -198q84 0 130 56.5t46 154.5v227
q0 197 -168 197q-170 0 -170 -197v-240z" />
    <glyph glyph-name="colon" unicode=":" horiz-adv-x="374" 
d="M106 0v207h162v-207h-162zM106 780v207h162v-207h-162z" />
    <glyph glyph-name="semicolon" unicode=";" horiz-adv-x="374" 
d="M94 -221l70 221h-58v207h162v-191l-100 -237h-74zM106 780v207h162v-207h-162z" />
    <glyph glyph-name="less" unicode="&#x3c;" 
d="M96 557v117l615 280v-127l-467 -213l467 -213v-127z" />
    <glyph glyph-name="equal" unicode="=" 
d="M82 387v123h655v-123h-655zM82 719v123h655v-123h-655z" />
    <glyph glyph-name="greater" unicode="&#x3e;" 
d="M111 274v127l467 213l-467 213v127l614 -280v-117z" />
    <glyph glyph-name="question" unicode="?" horiz-adv-x="741" 
d="M51 983v119q0 168 81 260t239 92t238.5 -89.5t80.5 -256.5q0 -97 -35 -183t-116 -192q-73 -100 -103 -163t-30 -132v-78h-140v82q0 156 129 338q76 109 105.5 181t29.5 157q0 191 -163 191q-164 0 -164 -197v-129h-152zM254 0v207h162v-207h-162z" />
    <glyph glyph-name="at" unicode="@" horiz-adv-x="1425" 
d="M66 526q0 418 176 674q178 254 518 254q289 0 445.5 -157t156.5 -447q0 -158 -31 -301q-30 -139 -112 -240q-79 -102 -199 -102q-151 0 -172 139q-74 -139 -213 -139q-234 0 -207 282l29 293q27 260 231 260q141 0 199 -118l10 98h145l-53 -500l-8 -63q-18 -119 70 -119
q60 0 104 84q82 157 82 430q0 223 -125 348t-348 125q-195 0 -326 -110q-125 -107 -180 -281.5t-53 -423.5q11 -278 152.5 -423.5t408.5 -145.5q210 0 354 112l-10 -147q-145 -92 -346 -92q-332 0 -512 183.5t-186 526.5zM571 496q-15 -162 113 -162q63 0 106 48.5t56 139.5
v8l20 193q5 88 -32.5 140t-106.5 52q-112 0 -127 -151z" />
    <glyph glyph-name="A" unicode="A" 
d="M35 0l266 1434h215l268 -1434h-161l-54 305h-331l-54 -305h-149zM262 444h283l-144 807z" />
    <glyph glyph-name="B" unicode="B" horiz-adv-x="823" 
d="M98 0v1434h320q169 0 246 -79t77 -247v-59q0 -229 -159 -287v-4q182 -53 182 -301v-123q0 -334 -330 -334h-336zM258 145h176q88 0 129 45.5t41 147.5v123q0 117 -46.5 166t-156.5 49h-143v-531zM258 821h135q98 0 143.5 47t45.5 150v74q0 105 -39 150.5t-129 45.5h-156
v-467z" />
    <glyph glyph-name="C" unicode="C" horiz-adv-x="782" 
d="M82 322v790q0 162 83 252t236 90t236.5 -90t83.5 -252v-147h-152v157q0 90 -43.5 138.5t-119.5 48.5t-120 -49t-44 -138v-811q0 -89 44 -137.5t120 -48.5t119.5 48t43.5 138v201h152v-190q0 -162 -83.5 -252t-236.5 -90q-152 0 -235.5 90t-83.5 252z" />
    <glyph glyph-name="D" unicode="D" horiz-adv-x="831" 
d="M98 0v1434h328q324 0 324 -349v-737q0 -348 -324 -348h-328zM258 145h164q87 0 127.5 47t40.5 150v752q0 103 -40.5 148.5t-127.5 45.5h-164v-1143z" />
    <glyph glyph-name="E" unicode="E" horiz-adv-x="729" 
d="M98 0v1434h588v-146h-428v-467h348v-145h-348v-531h428v-145h-588z" />
    <glyph glyph-name="F" unicode="F" horiz-adv-x="700" 
d="M98 0v1434h570v-146h-410v-487h330v-146h-330v-655h-160z" />
    <glyph glyph-name="G" unicode="G" horiz-adv-x="804" 
d="M82 334v768q0 171 83 261.5t241 90.5q159 0 242 -90t83 -262v-117h-151v127q0 197 -170 197q-168 0 -168 -197v-790q0 -197 168 -197q170 0 170 197v321h-158v145h309v-454q0 -172 -83 -263t-242 -91q-158 0 -241 91t-83 263z" />
    <glyph glyph-name="H" unicode="H" horiz-adv-x="856" 
d="M98 0v1434h160v-613h340v613h160v-1434h-160v676h-340v-676h-160z" />
    <glyph glyph-name="I" unicode="I" horiz-adv-x="354" 
d="M98 0v1434h160v-1434h-160z" />
    <glyph glyph-name="J" unicode="J" horiz-adv-x="530" 
d="M35 4v146q44 -13 84 -13q85 0 123.5 43t38.5 137v1117h159v-1112q0 -168 -74 -249t-227 -81q-66 0 -104 12z" />
    <glyph glyph-name="K" unicode="K" horiz-adv-x="835" 
d="M98 0v1434h160v-707l375 707h166l-297 -537l301 -897h-168l-240 709l-137 -248v-461h-160z" />
    <glyph glyph-name="L" unicode="L" horiz-adv-x="700" 
d="M98 0v1434h160v-1289h410v-145h-570z" />
    <glyph glyph-name="M" unicode="M" horiz-adv-x="1079" 
d="M98 0v1434h232l211 -1145l209 1145h233v-1434h-154v1196l-227 -1196h-135l-227 1196v-1196h-142z" />
    <glyph glyph-name="N" unicode="N" horiz-adv-x="870" 
d="M98 0v1434h205l324 -1024v1024h145v-1434h-166l-362 1165v-1165h-146z" />
    <glyph glyph-name="O" unicode="O" 
d="M82 334v768q0 170 85 261t243 91q160 0 244.5 -91t84.5 -261v-768q0 -171 -85 -262.5t-244 -91.5q-158 0 -243 92t-85 262zM242 324q0 -199 168 -199q170 0 170 199v788q0 197 -170 197q-168 0 -168 -197v-788z" />
    <glyph glyph-name="P" unicode="P" horiz-adv-x="784" 
d="M98 0v1434h314q323 0 323 -349v-122q0 -347 -323 -347h-154v-616h-160zM258 762h154q87 0 125 44t38 148v142q0 104 -38 148t-125 44h-154v-526z" />
    <glyph glyph-name="Q" unicode="Q" 
d="M82 334v768q0 170 85 261t243 91q160 0 244.5 -91t84.5 -261v-768q0 -172 -86 -264q24 -58 109 -58h31v-145h-48q-152 0 -192 137q-61 -24 -143 -24q-158 0 -243 92t-85 262zM242 324q0 -199 168 -199q170 0 170 199v788q0 197 -170 197q-168 0 -168 -197v-788z" />
    <glyph glyph-name="R" unicode="R" horiz-adv-x="821" 
d="M98 0v1434h314q169 0 246 -79t77 -247v-88q0 -237 -166 -289v-2q168 -43 168 -299v-256q0 -116 21 -174h-162q-18 62 -18 174v264q0 115 -44 162t-147 47h-129v-647h-160zM258 793h129q98 0 143 46.5t45 149.5v103q0 105 -38.5 150.5t-128.5 45.5h-150v-495z" />
    <glyph glyph-name="S" unicode="S" horiz-adv-x="755" 
d="M57 328v80h152v-93q0 -190 166 -190q168 0 168 192q0 99 -49 175q-45 74 -172 180q-150 122 -207 219q-58 98 -58 221q0 162 84.5 252t237.5 90t234 -89.5t81 -256.5v-57h-151v67q0 191 -164 191t-164 -187q0 -88 49 -161q51 -76 178 -179q150 -125 203 -223
q57 -96 57 -229q0 -167 -85 -258.5t-240 -91.5t-237.5 90t-82.5 258z" />
    <glyph glyph-name="T" unicode="T" horiz-adv-x="735" 
d="M35 1288v146h667v-146h-253v-1288h-160v1288h-254z" />
    <glyph glyph-name="U" unicode="U" horiz-adv-x="825" 
d="M90 334v1100h160v-1112q0 -197 166 -197t166 197v1112h155v-1100q0 -172 -82.5 -263t-240.5 -91q-159 0 -241.5 91t-82.5 263z" />
    <glyph glyph-name="V" unicode="V" horiz-adv-x="794" 
d="M37 1434h162l207 -1217l206 1217h148l-254 -1434h-213z" />
    <glyph glyph-name="W" unicode="W" horiz-adv-x="1142" 
d="M41 1434h156l143 -1213l147 1213h181l149 -1213l144 1213h141l-176 -1434h-205l-143 1118l-146 -1118h-215z" />
    <glyph glyph-name="X" unicode="X" 
d="M33 0l282 733l-270 701h170l201 -537l205 537h153l-270 -701l282 -733h-170l-215 571l-215 -571h-153z" />
    <glyph glyph-name="Y" unicode="Y" horiz-adv-x="796" 
d="M31 1434h170l205 -598l204 598h158l-289 -805v-629h-160v629z" />
    <glyph glyph-name="Z" unicode="Z" horiz-adv-x="727" 
d="M43 0v143l465 1145h-445v146h617v-142l-465 -1147h465v-145h-637z" />
    <glyph glyph-name="bracketleft" unicode="[" horiz-adv-x="540" 
d="M131 -205v1639h342v-123h-194v-1393h194v-123h-342z" />
    <glyph glyph-name="backslash" unicode="\" horiz-adv-x="763" 
d="M31 1434h137l565 -1639h-137z" />
    <glyph glyph-name="bracketright" unicode="]" horiz-adv-x="540" 
d="M70 -82h194v1393h-194v123h342v-1639h-342v123z" />
    <glyph glyph-name="asciicircum" unicode="^" 
d="M59 883l293 551h117l291 -551h-139l-211 395l-209 -395h-142z" />
    <glyph glyph-name="underscore" unicode="_" horiz-adv-x="614" 
d="M0 -106h614v-103h-614v103z" />
    <glyph glyph-name="grave" unicode="`" horiz-adv-x="1024" 
d="M291 1419h178l143 -262h-125z" />
    <glyph glyph-name="a" unicode="a" horiz-adv-x="751" 
d="M53 233q0 118 58 195t198 143q124 56 162 86q33 26 33 82v25q0 154 -133 154q-68 0 -106 -41.5t-38 -116.5v-31h-145v23q0 143 76 221t215 78q284 0 284 -312v-458q0 -177 23 -281h-141q-12 45 -17 139q-64 -159 -239 -159q-106 0 -168 68t-62 185zM209 256
q0 -141 127 -141q78 0 123 61.5t45 171.5v207q-21 -30 -150 -96q-145 -74 -145 -203z" />
    <glyph glyph-name="b" unicode="b" horiz-adv-x="786" 
d="M98 0v1434h154v-506q70 123 211 123q242 0 242 -297v-475q0 -299 -242 -299q-168 0 -232 165l-20 -145h-113zM252 346q0 -108 45.5 -168.5t120.5 -60.5q133 0 133 174v450q0 172 -133 172q-75 0 -120.5 -60.5t-45.5 -168.5v-338z" />
    <glyph glyph-name="c" unicode="c" horiz-adv-x="735" 
d="M78 309v414q0 160 77 244t224 84q145 0 220 -85.5t75 -242.5v-45h-150v59q0 176 -145 176q-146 0 -146 -176v-442q0 -178 146 -178q145 0 145 178v80h150v-66q0 -159 -75 -244t-220 -85q-147 0 -224 84.5t-77 244.5z" />
    <glyph glyph-name="d" unicode="d" horiz-adv-x="786" 
d="M82 279v475q0 297 240 297q142 0 213 -123v506h153v-1153q0 -177 23 -281h-142q-13 41 -16 139q-67 -159 -231 -159q-240 0 -240 299zM238 291q0 -174 131 -174q75 0 120.5 60.5t45.5 168.5v338q0 108 -45.5 168.5t-120.5 60.5q-131 0 -131 -172v-450z" />
    <glyph glyph-name="e" unicode="e" horiz-adv-x="757" 
d="M78 313v406q0 160 78 246t227 86q148 0 226.5 -86t78.5 -246v-227h-455v-193q0 -182 152 -182q154 0 154 182v31h149v-17q0 -160 -79 -246.5t-226 -86.5t-226 86.5t-79 246.5zM233 618h304v115q0 180 -154 180q-150 0 -150 -180v-115z" />
    <glyph glyph-name="f" unicode="f" horiz-adv-x="536" 
d="M35 899v131h131v191q0 233 225 233q71 0 115 -20v-134q-46 17 -86 17q-54 0 -77.5 -26t-23.5 -89v-172h187v-131h-187v-899h-153v899h-131z" />
    <glyph glyph-name="g" unicode="g" horiz-adv-x="782" 
d="M80 324v430q0 297 239 297q165 0 230 -158l2 137h133v-1061q0 -155 -72 -231t-229 -76q-146 0 -220.5 67.5t-74.5 196.5v8h148v-14q0 -129 145 -129q149 0 149 168v188q-70 -122 -211 -122q-239 0 -239 299zM233 336q0 -174 134 -174q74 0 118.5 60.5t44.5 168.5v293
q0 108 -44.5 168.5t-118.5 60.5q-134 0 -134 -172v-405z" />
    <glyph glyph-name="h" unicode="h" horiz-adv-x="788" 
d="M98 0v1434h154v-502q70 119 209 119q237 0 237 -297v-754h-155v733q0 180 -129 180q-73 0 -117.5 -60.5t-44.5 -168.5v-684h-154z" />
    <glyph glyph-name="i" unicode="i" horiz-adv-x="350" 
d="M98 0v1030h154v-1030h-154zM98 1178v221h154v-221h-154z" />
    <glyph glyph-name="j" unicode="j" horiz-adv-x="350" 
d="M-37 -186q41 -15 70 -15q35 0 50 17.5t15 60.5v1153h154v-1165q0 -203 -191 -203q-57 0 -98 21v131zM98 1178v221h154v-221h-154z" />
    <glyph glyph-name="k" unicode="k" horiz-adv-x="784" 
d="M98 0v1434h154v-906l321 502h166l-260 -385l273 -645h-168l-207 492l-125 -187v-305h-154z" />
    <glyph glyph-name="l" unicode="l" horiz-adv-x="350" 
d="M98 0v1434h154v-1434h-154z" />
    <glyph glyph-name="m" unicode="m" horiz-adv-x="1208" 
d="M98 0v1030h133l2 -135q65 156 222 156q166 0 213 -152q65 152 219 152q231 0 231 -289v-762h-153v752q0 161 -123 161q-70 0 -113 -60.5t-43 -168.5v-684h-156v752q0 161 -122 161q-70 0 -113 -60.5t-43 -168.5v-684h-154z" />
    <glyph glyph-name="n" unicode="n" horiz-adv-x="788" 
d="M98 0v1030h133l2 -135q65 156 228 156q237 0 237 -297v-754h-155v733q0 180 -129 180q-73 0 -117.5 -60.5t-44.5 -168.5v-684h-154z" />
    <glyph glyph-name="o" unicode="o" horiz-adv-x="759" 
d="M78 313v406q0 160 78 246t225 86q146 0 224.5 -86t78.5 -246v-406q0 -160 -78.5 -246.5t-224.5 -86.5q-147 0 -225 86.5t-78 246.5zM231 299q0 -182 150 -182q147 0 147 182v434q0 180 -147 180q-150 0 -150 -180v-434z" />
    <glyph glyph-name="p" unicode="p" horiz-adv-x="786" 
d="M98 -317v1347h133l2 -139q65 160 230 160q242 0 242 -297v-475q0 -299 -242 -299q-141 0 -211 122v-419h-154zM252 346q0 -108 45.5 -168.5t120.5 -60.5q131 0 131 174v450q0 172 -131 172q-75 0 -120.5 -60.5t-45.5 -168.5v-338z" />
    <glyph glyph-name="q" unicode="q" horiz-adv-x="786" 
d="M82 279v475q0 297 242 297q167 0 231 -166l20 145h113v-1347h-153v419q-70 -122 -211 -122q-242 0 -242 299zM238 291q0 -174 131 -174q75 0 120.5 60.5t45.5 168.5v338q0 108 -45.5 168.5t-120.5 60.5q-131 0 -131 -172v-450z" />
    <glyph glyph-name="r" unicode="r" horiz-adv-x="540" 
d="M98 0v1030h133l2 -170q53 191 216 191q41 0 67 -13v-151q-30 10 -63 10q-201 0 -201 -297v-600h-154z" />
    <glyph glyph-name="s" unicode="s" horiz-adv-x="694" 
d="M55 276v35h150v-39q0 -157 141 -157t141 149q0 45 -28 84q-24 35 -54.5 56t-95.5 55q-85 48 -90 51q-38 25 -72 57q-81 72 -81 209q0 128 74 201.5t204 73.5q128 0 203.5 -77t75.5 -210v-21h-146v25q0 150 -131 150q-59 0 -95 -37t-36 -103q0 -46 29 -90q27 -36 56.5 -56
t98.5 -54q60 -31 91 -51.5t71 -57.5q80 -71 80 -203q0 -134 -75.5 -210t-211.5 -76q-141 0 -220 78t-79 218z" />
    <glyph glyph-name="t" unicode="t" horiz-adv-x="542" 
d="M33 899v131h133l16 297h133v-297h187v-131h-187v-668q0 -62 23 -88t78 -26q43 0 86 16v-133q-44 -20 -115 -20q-227 0 -227 235v684h-127z" />
    <glyph glyph-name="u" unicode="u" horiz-adv-x="788" 
d="M90 279v751h156v-733q0 -180 129 -180q73 0 117.5 60.5t44.5 168.5v684h153v-1030h-133l-2 137q-65 -157 -227 -157q-238 0 -238 299z" />
    <glyph glyph-name="v" unicode="v" horiz-adv-x="731" 
d="M37 1030h158l178 -823l178 823h145l-233 -1030h-193z" />
    <glyph glyph-name="w" unicode="w" horiz-adv-x="1093" 
d="M41 1030h152l143 -817l137 817h162l137 -817l143 817h140l-178 -1030h-189l-135 743l-135 -743h-199z" />
    <glyph glyph-name="x" unicode="x" horiz-adv-x="751" 
d="M35 0l248 528l-236 502h168l168 -373l168 373h154l-236 -502l248 -528h-170l-178 403l-181 -403h-153z" />
    <glyph glyph-name="y" unicode="y" horiz-adv-x="727" 
d="M35 1030h158l186 -784l168 784h143l-217 -958l-43 -189q-26 -118 -84 -169.5t-164 -51.5q-66 0 -104 21v133q39 -17 82 -17q55 0 80 22.5t39 84.5l18 82z" />
    <glyph glyph-name="z" unicode="z" horiz-adv-x="671" 
d="M49 0v129l406 770h-385v131h548v-129l-405 -768h405v-133h-569z" />
    <glyph glyph-name="braceleft" unicode="{" horiz-adv-x="540" 
d="M51 553v125q75 0 103 31t28 116v389q0 108 55 164t156 56h92v-125h-34q-69 0 -94 -31.5t-25 -116.5v-354q0 -156 -121 -191v-4q121 -30 121 -192v-352q0 -85 25 -116.5t94 -31.5h34v-125h-92q-100 0 -155.5 54.5t-55.5 166.5v385q0 86 -28 119t-103 33z" />
    <glyph glyph-name="bar" unicode="|" horiz-adv-x="614" 
d="M240 -410v2050h135v-2050h-135z" />
    <glyph glyph-name="braceright" unicode="}" horiz-adv-x="540" 
d="M57 -80h33q69 0 95 31.5t26 116.5v352q0 165 121 192v4q-121 35 -121 191v354q0 85 -26 116.5t-95 31.5h-33v125h90q101 0 156 -56t55 -164v-389q0 -84 29 -115.5t105 -31.5v-125q-75 0 -104.5 -33t-29.5 -119v-385q0 -221 -211 -221h-90v125z" />
    <glyph glyph-name="asciitilde" unicode="~" 
d="M35 549q60 103 111 147.5t120 44.5q67 0 156 -63q95 -62 131 -62q39 0 67.5 27.5t75.5 104.5l90 -68q-58 -103 -109.5 -148t-121.5 -45q-62 0 -156 64q-91 61 -131 61q-39 0 -67.5 -27.5t-75.5 -103.5z" />
    <glyph glyph-name="uni00A0" unicode="&#xa0;" horiz-adv-x="333" 
 />
    <glyph glyph-name="exclamdown" unicode="&#xa1;" horiz-adv-x="405" 
d="M123 270l20 402h119l21 -402v-676h-160v676zM123 825v205h162v-205h-162z" />
    <glyph glyph-name="cent" unicode="&#xa2;" 
d="M100 449v536q0 143 64.5 230.5t185.5 107.5v131h133v-131q122 -19 188 -107t66 -231v-63h-149v73q0 141 -105 176v-501h-133v497q-90 -41 -90 -172v-557q0 -90 43 -138t119 -48q79 0 122.5 48t43.5 138v115h149v-104q0 -143 -66 -231t-188 -107v-152h-133v152
q-121 20 -185.5 107.5t-64.5 230.5z" />
    <glyph glyph-name="sterling" unicode="&#xa3;" 
d="M84 0v137q91 60 145 151t54 187q0 30 -7 70h-186v127h160l-49 102q-24 48 -51 109q-44 115 -44 241q0 151 82 240.5t236 89.5q158 0 239.5 -92.5t81.5 -259.5v-68h-151v78q0 197 -166 197q-162 0 -162 -197q0 -84 23 -168q26 -83 61 -160q41 -80 49 -112h277v-127h-248
q4 -50 4 -58q0 -170 -166 -342h469v-145h-651z" />
    <glyph glyph-name="currency" unicode="&#xa4;" 
d="M88 469l115 109q-43 63 -43 139t43 139l-115 109l76 75l106 -114q66 43 141.5 43t141.5 -43l106 114l76 -75l-114 -109q41 -60 41 -139t-41 -139l114 -109l-76 -76l-106 117q-66 -43 -141.5 -43t-141.5 43l-106 -117zM276 717q0 -60 38 -96.5t98 -36.5q59 0 96 37.5
t37 95.5q0 60 -36.5 97.5t-96.5 37.5t-98 -37.5t-38 -97.5z" />
    <glyph glyph-name="yen" unicode="&#xa5;" 
d="M41 1434h170l205 -598l207 598h155l-280 -779h207v-110h-216v-178h216v-113h-216v-254h-159v254h-207v113h207v178h-207v110h199z" />
    <glyph glyph-name="brokenbar" unicode="&#xa6;" horiz-adv-x="614" 
d="M240 -410v820h135v-820h-135zM240 819v819h135v-819h-135z" />
    <glyph glyph-name="section" unicode="&#xa7;" horiz-adv-x="849" 
d="M68 637q0 205 168 278q-119 88 -119 244q0 134 84 214.5t225 80.5q138 0 223.5 -83.5t85.5 -223.5v-25h-147v29q0 79 -44 124.5t-118 45.5q-68 0 -113 -44t-45 -116q0 -83 70 -139q63 -43 156 -86q62 -30 106 -55q28 -16 88 -62q96 -78 96 -221q0 -206 -168 -276
q119 -94 119 -244q0 -134 -84.5 -215.5t-224.5 -81.5t-224.5 83.5t-84.5 225.5v25h147v-29q0 -81 43 -126.5t117 -45.5q69 0 114.5 43.5t45.5 116.5q0 56 -37 102q-30 38 -62 58.5t-108 55.5q-12 6 -19 9q-103 50 -108 53q-18 10 -88 64q-94 78 -94 221zM221 653
q0 -86 70 -145q37 -28 67.5 -45t90.5 -45l34 -17q67 7 106.5 56.5t39.5 124.5q0 90 -72 145q-48 39 -154 90l-38 19q-66 -8 -105 -56.5t-39 -126.5z" />
    <glyph glyph-name="dieresis" unicode="&#xa8;" horiz-adv-x="1024" 
d="M311 1178v221h144v-221h-144zM569 1178v221h144v-221h-144z" />
    <glyph glyph-name="copyright" unicode="&#xa9;" horiz-adv-x="1544" 
d="M59 717q0 317 203 526q202 211 510 211t510 -211q203 -209 203 -526t-203 -529q-202 -208 -510 -208t-510 208q-203 212 -203 529zM174 717q0 -277 168 -451q170 -176 430 -176t430 176q170 179 170 451t-170 448q-169 178 -430 178q-260 0 -430 -176
q-168 -174 -168 -450zM541 512v408q0 247 225 247q223 0 223 -247v-64h-112v72q0 129 -109 129t-109 -129v-422q0 -127 109 -127t109 127v104h112v-98q0 -118 -57 -181t-166 -63q-225 0 -225 244z" />
    <glyph glyph-name="ordfeminine" unicode="&#xaa;" horiz-adv-x="575" 
d="M53 866q0 88 42 142.5t145 101.5q94 43 112 61q25 22 25 60v18q0 109 -94 109q-105 0 -105 -113v-22h-106v18q0 100 55.5 156.5t155.5 56.5q204 0 204 -223v-330q0 -137 15 -201h-101q-6 20 -12 93q-47 -109 -168 -109q-80 0 -124 48t-44 134zM68 467v100h421v-100h-421z
M164 883q0 -101 90 -101q60 0 91.5 43t31.5 123v150q-16 -24 -109 -70q-104 -52 -104 -145z" />
    <glyph glyph-name="guillemotleft" unicode="&#xab;" horiz-adv-x="624" 
d="M55 614l133 205h119l-104 -205l104 -213h-119zM315 614l131 205h119l-102 -205l102 -213h-119z" />
    <glyph glyph-name="logicalnot" unicode="&#xac;" 
d="M39 631v121h696v-414h-121v293h-575z" />
    <glyph glyph-name="uni00AD" unicode="&#xad;" horiz-adv-x="542" 
d="M61 549v131h420v-131h-420z" />
    <glyph glyph-name="registered" unicode="&#xae;" horiz-adv-x="1544" 
d="M59 717q0 317 203 526q202 211 510 211t510 -211q203 -209 203 -526t-203 -529q-202 -208 -510 -208t-510 208q-203 212 -203 529zM174 717q0 -277 168 -451q170 -176 430 -176t430 176q170 179 170 451t-170 448q-169 178 -430 178q-260 0 -430 -176
q-168 -174 -168 -450zM559 279v876h225q114 0 169 -53.5t55 -169.5v-27q0 -150 -113 -190v-2q113 -30 113 -187v-127q0 -79 18 -120h-123q-14 41 -14 122v119q0 73 -28.5 102t-100.5 29h-82v-372h-119zM678 762h86q65 0 95 29t30 96v33q0 65 -25.5 94.5t-85.5 29.5h-100
v-282z" />
    <glyph glyph-name="macron" unicode="&#xaf;" horiz-adv-x="1024" 
d="M295 1229v121h434v-121h-434z" />
    <glyph glyph-name="degree" unicode="&#xb0;" 
d="M172 1217q0 99 68 167q70 70 170 70t170 -70q69 -66 69 -167t-69 -170q-70 -70 -170 -70t-170 70q-68 71 -68 170zM289 1216.5q0 -51.5 35 -88.5q35 -35 86 -35t86 35q37 37 37 88.5t-37 86.5q-35 37 -86 37t-86 -37q-35 -35 -35 -86.5z" />
    <glyph glyph-name="plusminus" unicode="&#xb1;" 
d="M82 231v121h266v260h-266v123h266v266h123v-266h266v-123h-266v-260h266v-121h-655z" />
    <glyph glyph-name="uni00B2" unicode="&#xb2;" horiz-adv-x="579" 
d="M88 719v88q0 103 36 182t122 166q80 83 112.5 142.5t32.5 127.5q0 125 -98 125q-100 0 -100 -118v-76h-105v69q0 106 52.5 165t154.5 59q101 0 154 -57.5t53 -161.5q0 -86 -40 -161.5t-134 -174.5q-75 -81 -103 -134.5t-28 -119.5v-21h295v-100h-404z" />
    <glyph glyph-name="uni00B3" unicode="&#xb3;" horiz-adv-x="579" 
d="M76 926v69h104v-77q0 -119 101 -119q100 0 100 129v86q0 131 -111 131h-53v98h59q105 0 105 121v55q0 131 -100 131q-101 0 -101 -118v-54h-102v45q0 226 207 226t207 -226v-41q0 -144 -105 -184v-4q105 -34 105 -188v-80q0 -228 -209 -228q-101 0 -154 60t-53 168z" />
    <glyph glyph-name="acute" unicode="&#xb4;" horiz-adv-x="1024" 
d="M412 1157l145 262h178l-196 -262h-127z" />
    <glyph glyph-name="mu" unicode="&#xb5;" horiz-adv-x="794" 
d="M98 -317v1347h154v-733q0 -180 129 -180q75 0 118.5 59.5t43.5 169.5v684h155v-1030h-135l-2 133q-65 -153 -227 -153q-37 0 -82 10v-307h-154z" />
    <glyph glyph-name="paragraph" unicode="&#xb6;" horiz-adv-x="917" 
d="M74 954v131q0 349 334 349h389v-1633h-125v1512h-160v-1512h-125v822q-313 6 -313 331z" />
    <glyph glyph-name="periodcentered" unicode="&#xb7;" horiz-adv-x="374" 
d="M106 512v205h162v-205h-162z" />
    <glyph glyph-name="cedilla" unicode="&#xb8;" horiz-adv-x="1024" 
d="M330 -180h114v-17q0 -49 66 -49q74 0 74 56q0 55 -80 55h-21v155h80v-110q137 0 137 -103q0 -71 -44.5 -97.5t-143.5 -26.5q-182 0 -182 120v17z" />
    <glyph glyph-name="uni00B9" unicode="&#xb9;" horiz-adv-x="579" 
d="M127 1427v82q81 1 123 28t67 91h76v-909h-110v733q-71 -22 -156 -25z" />
    <glyph glyph-name="ordmasculine" unicode="&#xba;" horiz-adv-x="575" 
d="M72 924v293q0 115 56 176t161 61q103 0 160 -62.5t57 -174.5v-293q0 -115 -57 -177.5t-160 -62.5q-104 0 -160.5 62.5t-56.5 177.5zM78 469v98h420v-98h-420zM180 913q0 -129 109 -129q106 0 106 129v314q0 129 -106 129q-109 0 -109 -129v-314z" />
    <glyph glyph-name="guillemotright" unicode="&#xbb;" horiz-adv-x="624" 
d="M61 401l101 213l-101 205h117l133 -205l-133 -213h-117zM319 401l103 213l-103 205h119l131 -205l-131 -213h-119z" />
    <glyph glyph-name="onequarter" unicode="&#xbc;" horiz-adv-x="1337" 
d="M127 1233v82q81 1 123 28t67 91h76v-910h-110v733q-67 -21 -156 -24zM336 0l557 1434h111l-558 -1434h-110zM813 178v101l281 630h120v-633h72v-98h-72v-178h-110v178h-291zM915 276h191v439z" />
    <glyph glyph-name="onehalf" unicode="&#xbd;" horiz-adv-x="1337" 
d="M127 1233v82q81 1 123 28t67 91h76v-910h-110v733q-67 -21 -156 -24zM336 0l557 1434h111l-558 -1434h-110zM846 0v88q0 103 36 182t122 166q80 82 112.5 142.5t32.5 128.5q0 124 -98 124q-101 0 -101 -118v-76h-104v70q0 106 52.5 164.5t154.5 58.5q101 0 154 -57.5
t53 -161.5q0 -86 -40 -161.5t-135 -174.5q-75 -81 -103 -134.5t-28 -119.5v-21h295v-100h-403z" />
    <glyph glyph-name="threequarters" unicode="&#xbe;" horiz-adv-x="1337" 
d="M76 731v70h104v-78q0 -119 101 -119q100 0 100 129v86q0 131 -111 131h-53v99h59q105 0 105 120v56q0 131 -100 131q-101 0 -101 -119v-53h-102v45q0 225 207 225t207 -225v-41q0 -144 -105 -184v-5q105 -35 105 -188v-80q0 -227 -209 -227q-101 0 -154 60t-53 167z
M336 0l557 1434h111l-558 -1434h-110zM813 178v101l281 630h120v-633h72v-98h-72v-178h-110v178h-291zM915 276h191v439z" />
    <glyph glyph-name="questiondown" unicode="&#xbf;" horiz-adv-x="741" 
d="M51 -78q0 98 35.5 184t116.5 191q73 96 103 161t30 136v78h139v-84q0 -150 -129 -338q-76 -106 -105.5 -178t-29.5 -160q0 -191 164 -191t164 197v131h151v-121q0 -168 -81 -260t-238 -92q-158 0 -239 90t-81 256zM326 825v205h161v-205h-161z" />
    <glyph glyph-name="Agrave" unicode="&#xc0;" 
d="M35 0l266 1434h215l268 -1434h-161l-54 305h-331l-54 -305h-149zM188 1802h179l143 -262h-125zM262 444h283l-144 807z" />
    <glyph glyph-name="Aacute" unicode="&#xc1;" 
d="M35 0l266 1434h215l268 -1434h-161l-54 305h-331l-54 -305h-149zM262 444h283l-144 807zM309 1540l146 262h178l-197 -262h-127z" />
    <glyph glyph-name="Acircumflex" unicode="&#xc2;" 
d="M35 0l266 1434h215l268 -1434h-161l-54 305h-331l-54 -305h-149zM170 1540l160 262h162l157 -262h-125l-114 172l-113 -172h-127zM262 444h283l-144 807z" />
    <glyph glyph-name="Atilde" unicode="&#xc3;" 
d="M35 0l266 1434h215l268 -1434h-161l-54 305h-331l-54 -305h-149zM162 1616q65 151 164 151q50 0 108 -43q44 -30 66 -30q46 0 80 82l84 -47q-65 -152 -164 -152q-54 0 -109 43q-45 31 -65 31q-46 0 -80 -82zM262 444h283l-144 807z" />
    <glyph glyph-name="Adieresis" unicode="&#xc4;" 
d="M35 0l266 1434h215l268 -1434h-161l-54 305h-331l-54 -305h-149zM209 1561v221h143v-221h-143zM262 444h283l-144 807zM467 1561v221h143v-221h-143z" />
    <glyph glyph-name="Aring" unicode="&#xc5;" 
d="M35 0l266 1434h215l268 -1434h-161l-54 305h-331l-54 -305h-149zM246 1702q0 68 47 115t116.5 47t116.5 -47t47 -115t-47 -115t-116.5 -47t-116.5 47t-47 115zM262 444h283l-144 807zM338 1702q0 -32 20 -55q20 -20 51.5 -20t51.5 20q23 23 23 55t-23 55q-20 23 -51.5 23
t-51.5 -23t-20 -55z" />
    <glyph glyph-name="AE" unicode="&#xc6;" horiz-adv-x="1189" 
d="M31 0l444 1434h672v-146h-426v-467h346v-145h-346v-531h426v-145h-586v305h-285l-92 -305h-153zM319 444h242v795z" />
    <glyph glyph-name="Ccedilla" unicode="&#xc7;" horiz-adv-x="782" 
d="M82 322v790q0 162 83 252t236 90t236.5 -90t83.5 -252v-147h-152v157q0 90 -43.5 138.5t-119.5 48.5t-120 -49t-44 -138v-811q0 -89 44 -137.5t120 -48.5t119.5 48t43.5 138v201h152v-190q0 -150 -71 -238.5t-204 -101.5v-72q138 0 138 -103q0 -71 -45 -97.5t-144 -26.5
q-182 0 -182 120v17h115v-17q0 -49 65 -49q74 0 74 56q0 55 -80 55h-20v117q-135 7 -210 97t-75 243z" />
    <glyph glyph-name="Egrave" unicode="&#xc8;" horiz-adv-x="729" 
d="M98 0v1434h588v-146h-428v-467h348v-145h-348v-531h428v-145h-588zM170 1802h178l144 -262h-125z" />
    <glyph glyph-name="Eacute" unicode="&#xc9;" horiz-adv-x="729" 
d="M98 0v1434h588v-146h-428v-467h348v-145h-348v-531h428v-145h-588zM291 1540l145 262h178l-196 -262h-127z" />
    <glyph glyph-name="Ecircumflex" unicode="&#xca;" horiz-adv-x="729" 
d="M98 0v1434h588v-146h-428v-467h348v-145h-348v-531h428v-145h-588zM152 1540l159 262h162l158 -262h-125l-115 172l-112 -172h-127z" />
    <glyph glyph-name="Edieresis" unicode="&#xcb;" horiz-adv-x="729" 
d="M98 0v1434h588v-146h-428v-467h348v-145h-348v-531h428v-145h-588zM190 1561v221h144v-221h-144zM449 1561v221h143v-221h-143z" />
    <glyph glyph-name="Igrave" unicode="&#xcc;" horiz-adv-x="354" 
d="M-45 1802h180l144 -262h-125zM98 0v1434h160v-1434h-160z" />
    <glyph glyph-name="Iacute" unicode="&#xcd;" horiz-adv-x="354" 
d="M78 1540l145 262h178l-196 -262h-127zM98 0v1434h160v-1434h-160z" />
    <glyph glyph-name="Icircumflex" unicode="&#xce;" horiz-adv-x="354" 
d="M-61 1540l159 262h162l158 -262h-125l-115 172l-112 -172h-127zM98 0v1434h160v-1434h-160z" />
    <glyph glyph-name="Idieresis" unicode="&#xcf;" horiz-adv-x="354" 
d="M-23 1561v221h144v-221h-144zM98 0v1434h160v-1434h-160zM236 1561v221h143v-221h-143z" />
    <glyph glyph-name="Eth" unicode="&#xd0;" horiz-adv-x="862" 
d="M35 678v139h92v617h328q325 0 325 -349v-737q0 -348 -325 -348h-328v678h-92zM287 145h166q87 0 127.5 47t40.5 150v752q0 103 -40.5 148.5t-127.5 45.5h-166v-471h159v-139h-159v-533z" />
    <glyph glyph-name="Ntilde" unicode="&#xd1;" horiz-adv-x="870" 
d="M98 0v1434h205l324 -1024v1024h145v-1434h-166l-362 1165v-1165h-146zM188 1616q65 151 164 151q51 0 109 -43q43 -30 65 -30q46 0 80 82l84 -47q-65 -152 -164 -152q-53 0 -108 43q-45 31 -66 31q-46 0 -80 -82z" />
    <glyph glyph-name="Ograve" unicode="&#xd2;" 
d="M82 334v768q0 170 85 261t243 91q160 0 244.5 -91t84.5 -261v-768q0 -171 -85 -262.5t-244 -91.5q-158 0 -243 92t-85 262zM188 1802h179l143 -262h-125zM242 324q0 -199 168 -199q170 0 170 199v788q0 197 -170 197q-168 0 -168 -197v-788z" />
    <glyph glyph-name="Oacute" unicode="&#xd3;" 
d="M82 334v768q0 170 85 261t243 91q160 0 244.5 -91t84.5 -261v-768q0 -171 -85 -262.5t-244 -91.5q-158 0 -243 92t-85 262zM242 324q0 -199 168 -199q170 0 170 199v788q0 197 -170 197q-168 0 -168 -197v-788zM309 1540l146 262h178l-197 -262h-127z" />
    <glyph glyph-name="Ocircumflex" unicode="&#xd4;" 
d="M82 334v768q0 170 85 261t243 91q160 0 244.5 -91t84.5 -261v-768q0 -171 -85 -262.5t-244 -91.5q-158 0 -243 92t-85 262zM170 1540l160 262h162l157 -262h-125l-114 172l-113 -172h-127zM242 324q0 -199 168 -199q170 0 170 199v788q0 197 -170 197q-168 0 -168 -197
v-788z" />
    <glyph glyph-name="Otilde" unicode="&#xd5;" 
d="M82 334v768q0 170 85 261t243 91q160 0 244.5 -91t84.5 -261v-768q0 -171 -85 -262.5t-244 -91.5q-158 0 -243 92t-85 262zM162 1616q65 151 164 151q50 0 108 -43q44 -30 66 -30q46 0 80 82l84 -47q-65 -152 -164 -152q-54 0 -109 43q-45 31 -65 31q-46 0 -80 -82z
M242 324q0 -199 168 -199q170 0 170 199v788q0 197 -170 197q-168 0 -168 -197v-788z" />
    <glyph glyph-name="Odieresis" unicode="&#xd6;" 
d="M82 334v768q0 170 85 261t243 91q160 0 244.5 -91t84.5 -261v-768q0 -171 -85 -262.5t-244 -91.5q-158 0 -243 92t-85 262zM209 1561v221h143v-221h-143zM242 324q0 -199 168 -199q170 0 170 199v788q0 197 -170 197q-168 0 -168 -197v-788zM467 1561v221h143v-221h-143z
" />
    <glyph glyph-name="multiply" unicode="&#xd7;" 
d="M94 377l234 237l-232 238l84 84l232 -238l233 240l84 -84l-233 -240l233 -237l-84 -84l-233 239l-234 -239z" />
    <glyph glyph-name="Oslash" unicode="&#xd8;" 
d="M68 -14l57 145q-43 79 -43 203v768q0 170 85 261t243 91q131 0 215 -63l37 96l90 -39l-56 -141q43 -82 43 -205v-768q0 -171 -85 -262.5t-244 -91.5q-130 0 -213 65l-39 -98zM242 426l317 801q-40 82 -149 82q-168 0 -168 -197v-686zM262 211q41 -86 148 -86
q170 0 170 199v690z" />
    <glyph glyph-name="Ugrave" unicode="&#xd9;" horiz-adv-x="825" 
d="M90 334v1100h160v-1112q0 -197 166 -197t166 197v1112h155v-1100q0 -172 -82.5 -263t-240.5 -91q-159 0 -241.5 91t-82.5 263zM193 1802h178l143 -262h-125z" />
    <glyph glyph-name="Uacute" unicode="&#xda;" horiz-adv-x="825" 
d="M90 334v1100h160v-1112q0 -197 166 -197t166 197v1112h155v-1100q0 -172 -82.5 -263t-240.5 -91q-159 0 -241.5 91t-82.5 263zM313 1540l146 262h178l-197 -262h-127z" />
    <glyph glyph-name="Ucircumflex" unicode="&#xdb;" horiz-adv-x="825" 
d="M90 334v1100h160v-1112q0 -197 166 -197t166 197v1112h155v-1100q0 -172 -82.5 -263t-240.5 -91q-159 0 -241.5 91t-82.5 263zM174 1540l160 262h162l157 -262h-125l-114 172l-113 -172h-127z" />
    <glyph glyph-name="Udieresis" unicode="&#xdc;" horiz-adv-x="825" 
d="M90 334v1100h160v-1112q0 -197 166 -197t166 197v1112h155v-1100q0 -172 -82.5 -263t-240.5 -91q-159 0 -241.5 91t-82.5 263zM213 1561v221h143v-221h-143zM471 1561v221h143v-221h-143z" />
    <glyph glyph-name="Yacute" unicode="&#xdd;" horiz-adv-x="796" 
d="M31 1434h170l205 -598l204 598h158l-289 -805v-629h-160v629zM299 1540l145 262h179l-197 -262h-127z" />
    <glyph glyph-name="Thorn" unicode="&#xde;" horiz-adv-x="784" 
d="M98 0v1434h160v-215h154q323 0 323 -349v-122q0 -349 -323 -349h-154v-399h-160zM258 545h154q87 0 125 44t38 148v142q0 104 -38 148t-125 44h-154v-526z" />
    <glyph glyph-name="germandbls" unicode="&#xdf;" horiz-adv-x="804" 
d="M98 0v1139q0 315 293 315q129 0 205 -75.5t76 -219.5q0 -132 -80 -256q-64 -94 -64 -178q0 -40 17 -82q16 -35 33.5 -55t56.5 -53q48 -41 63 -60q27 -29 46.5 -81.5t19.5 -114.5q0 -137 -75 -218t-202 -81q-71 0 -118 20v135q37 -18 92 -18q149 0 149 162q0 52 -22 86
t-76 79q-48 41 -68 64q-28 30 -49.5 89.5t-21.5 129.5q0 103 69 203q74 115 74 231q0 158 -129 158q-135 0 -135 -170v-1149h-154z" />
    <glyph glyph-name="agrave" unicode="&#xe0;" horiz-adv-x="751" 
d="M53 233q0 118 58 195t198 143q124 56 162 86q33 26 33 82v25q0 154 -133 154q-68 0 -106 -41.5t-38 -116.5v-31h-145v23q0 143 76 221t215 78q284 0 284 -312v-458q0 -177 23 -281h-141q-12 45 -17 139q-64 -159 -239 -159q-106 0 -168 68t-62 185zM145 1419h179
l143 -262h-125zM209 256q0 -141 127 -141q78 0 123 61.5t45 171.5v207q-21 -30 -150 -96q-145 -74 -145 -203z" />
    <glyph glyph-name="aacute" unicode="&#xe1;" horiz-adv-x="751" 
d="M53 233q0 118 58 195t198 143q124 56 162 86q33 26 33 82v25q0 154 -133 154q-68 0 -106 -41.5t-38 -116.5v-31h-145v23q0 143 76 221t215 78q284 0 284 -312v-458q0 -177 23 -281h-141q-12 45 -17 139q-64 -159 -239 -159q-106 0 -168 68t-62 185zM209 256
q0 -141 127 -141q78 0 123 61.5t45 171.5v207q-21 -30 -150 -96q-145 -74 -145 -203zM266 1157l146 262h178l-197 -262h-127z" />
    <glyph glyph-name="acircumflex" unicode="&#xe2;" horiz-adv-x="751" 
d="M53 233q0 118 58 195t198 143q124 56 162 86q33 26 33 82v25q0 154 -133 154q-68 0 -106 -41.5t-38 -116.5v-31h-145v23q0 143 76 221t215 78q284 0 284 -312v-458q0 -177 23 -281h-141q-12 45 -17 139q-64 -159 -239 -159q-106 0 -168 68t-62 185zM127 1157l160 262h162
l157 -262h-125l-114 172l-113 -172h-127zM209 256q0 -141 127 -141q78 0 123 61.5t45 171.5v207q-21 -30 -150 -96q-145 -74 -145 -203z" />
    <glyph glyph-name="atilde" unicode="&#xe3;" horiz-adv-x="751" 
d="M53 233q0 118 58 195t198 143q124 56 162 86q33 26 33 82v25q0 154 -133 154q-68 0 -106 -41.5t-38 -116.5v-31h-145v23q0 143 76 221t215 78q284 0 284 -312v-458q0 -177 23 -281h-141q-12 45 -17 139q-64 -159 -239 -159q-106 0 -168 68t-62 185zM119 1233
q65 151 164 151q50 0 108 -43q43 -30 66 -30q46 0 80 82l84 -47q-65 -152 -164 -152q-54 0 -109 43q-45 31 -65 31q-46 0 -80 -82zM209 256q0 -141 127 -141q78 0 123 61.5t45 171.5v207q-21 -30 -150 -96q-145 -74 -145 -203z" />
    <glyph glyph-name="adieresis" unicode="&#xe4;" horiz-adv-x="751" 
d="M53 233q0 118 58 195t198 143q124 56 162 86q33 26 33 82v25q0 154 -133 154q-68 0 -106 -41.5t-38 -116.5v-31h-145v23q0 143 76 221t215 78q284 0 284 -312v-458q0 -177 23 -281h-141q-12 45 -17 139q-64 -159 -239 -159q-106 0 -168 68t-62 185zM166 1178v221h143
v-221h-143zM209 256q0 -141 127 -141q78 0 123 61.5t45 171.5v207q-21 -30 -150 -96q-145 -74 -145 -203zM424 1178v221h143v-221h-143z" />
    <glyph glyph-name="aring" unicode="&#xe5;" horiz-adv-x="751" 
d="M53 233q0 118 58 195t198 143q124 56 162 86q33 26 33 82v25q0 154 -133 154q-68 0 -106 -41.5t-38 -116.5v-31h-145v23q0 143 76 221t215 78q284 0 284 -312v-458q0 -177 23 -281h-141q-12 45 -17 139q-64 -159 -239 -159q-106 0 -168 68t-62 185zM203 1319q0 68 47 115
t116.5 47t116.5 -47t47 -115t-47 -115t-116.5 -47t-116.5 47t-47 115zM209 256q0 -141 127 -141q78 0 123 61.5t45 171.5v207q-21 -30 -150 -96q-145 -74 -145 -203zM295 1319q0 -32 20 -55q20 -20 51.5 -20t51.5 20q23 23 23 55t-23 55q-20 23 -51.5 23t-51.5 -23t-20 -55z
" />
    <glyph glyph-name="ae" unicode="&#xe6;" horiz-adv-x="1183" 
d="M53 233q0 118 58 195t198 143q118 53 162 88q33 26 33 80v25q0 154 -131 154q-68 0 -107 -41.5t-39 -116.5v-31h-145v23q0 142 74 220.5t204 78.5q173 0 228 -125q64 125 233 125q140 0 216.5 -86.5t76.5 -245.5v-227h-455v-193q0 -182 152 -182q154 0 154 182v31h149
v-17q0 -160 -79 -246.5t-226 -86.5q-185 0 -262 135q-71 -135 -246 -135q-116 0 -182 67.5t-66 185.5zM209 256q0 -141 127 -141q80 0 124 60.5t44 170.5v209q-21 -30 -150 -96q-145 -74 -145 -203zM659 618h304v115q0 180 -154 180q-150 0 -150 -180v-115z" />
    <glyph glyph-name="ccedilla" unicode="&#xe7;" horiz-adv-x="735" 
d="M78 309v414q0 160 77 244t224 84q145 0 220 -85.5t75 -242.5v-45h-150v59q0 176 -145 176q-146 0 -146 -176v-442q0 -178 146 -178q145 0 145 178v80h150v-66q0 -147 -65 -231t-189 -96v-72q137 0 137 -103q0 -71 -44.5 -97.5t-143.5 -26.5q-183 0 -183 120v17h115v-17
q0 -49 66 -49q73 0 73 56q0 55 -80 55h-20v117q-128 10 -195 94.5t-67 232.5z" />
    <glyph glyph-name="egrave" unicode="&#xe8;" horiz-adv-x="757" 
d="M78 313v406q0 160 78 246t227 86q148 0 226.5 -86t78.5 -246v-227h-455v-193q0 -182 152 -182q154 0 154 182v31h149v-17q0 -160 -79 -246.5t-226 -86.5t-226 86.5t-79 246.5zM160 1419h178l143 -262h-125zM233 618h304v115q0 180 -154 180q-150 0 -150 -180v-115z" />
    <glyph glyph-name="eacute" unicode="&#xe9;" horiz-adv-x="757" 
d="M78 313v406q0 160 78 246t227 86q148 0 226.5 -86t78.5 -246v-227h-455v-193q0 -182 152 -182q154 0 154 182v31h149v-17q0 -160 -79 -246.5t-226 -86.5t-226 86.5t-79 246.5zM233 618h304v115q0 180 -154 180q-150 0 -150 -180v-115zM281 1157l145 262h178l-196 -262
h-127z" />
    <glyph glyph-name="ecircumflex" unicode="&#xea;" horiz-adv-x="757" 
d="M78 313v406q0 160 78 246t227 86q148 0 226.5 -86t78.5 -246v-227h-455v-193q0 -182 152 -182q154 0 154 182v31h149v-17q0 -160 -79 -246.5t-226 -86.5t-226 86.5t-79 246.5zM141 1157l160 262h162l158 -262h-125l-115 172l-113 -172h-127zM233 618h304v115
q0 180 -154 180q-150 0 -150 -180v-115z" />
    <glyph glyph-name="edieresis" unicode="&#xeb;" horiz-adv-x="757" 
d="M78 313v406q0 160 78 246t227 86q148 0 226.5 -86t78.5 -246v-227h-455v-193q0 -182 152 -182q154 0 154 182v31h149v-17q0 -160 -79 -246.5t-226 -86.5t-226 86.5t-79 246.5zM180 1178v221h144v-221h-144zM233 618h304v115q0 180 -154 180q-150 0 -150 -180v-115z
M438 1178v221h144v-221h-144z" />
    <glyph glyph-name="igrave" unicode="&#xec;" horiz-adv-x="350" 
d="M-49 1419h180l143 -262h-124zM98 0v1030h154v-1030h-154z" />
    <glyph glyph-name="iacute" unicode="&#xed;" horiz-adv-x="350" 
d="M74 1157l145 262h178l-196 -262h-127zM98 0v1030h154v-1030h-154z" />
    <glyph glyph-name="icircumflex" unicode="&#xee;" horiz-adv-x="350" 
d="M-66 1157l160 262h162l158 -262h-125l-115 172l-113 -172h-127zM98 0v1030h154v-1030h-154z" />
    <glyph glyph-name="idieresis" unicode="&#xef;" horiz-adv-x="350" 
d="M-27 1178v221h144v-221h-144zM98 0v1030h154v-1030h-154zM231 1178v221h144v-221h-144z" />
    <glyph glyph-name="eth" unicode="&#xf0;" horiz-adv-x="765" 
d="M76 313v373q0 297 241 297q136 0 209 -117q-15 175 -102 310l-123 -119h-143l207 198q-104 110 -242 179h213q79 -42 125 -88l90 88h141l-166 -160q156 -206 156 -582v-379q0 -160 -78 -246.5t-225 -86.5t-225 86.5t-78 246.5zM231 299q0 -182 148 -182q149 0 149 182
v317q0 108 -45.5 169t-120.5 61q-131 0 -131 -172v-375z" />
    <glyph glyph-name="ntilde" unicode="&#xf1;" horiz-adv-x="788" 
d="M98 0v1030h133l2 -135q65 156 228 156q237 0 237 -297v-754h-155v733q0 180 -129 180q-73 0 -117.5 -60.5t-44.5 -168.5v-684h-154zM147 1233q65 151 164 151q51 0 109 -43q43 -30 65 -30q46 0 80 82l84 -47q-65 -152 -164 -152q-53 0 -108 43q-45 31 -66 31
q-46 0 -80 -82z" />
    <glyph glyph-name="ograve" unicode="&#xf2;" horiz-adv-x="759" 
d="M78 313v406q0 160 78 246t225 86q146 0 224.5 -86t78.5 -246v-406q0 -160 -78.5 -246.5t-224.5 -86.5q-147 0 -225 86.5t-78 246.5zM160 1419h178l143 -262h-125zM231 299q0 -182 150 -182q147 0 147 182v434q0 180 -147 180q-150 0 -150 -180v-434z" />
    <glyph glyph-name="oacute" unicode="&#xf3;" horiz-adv-x="759" 
d="M78 313v406q0 160 78 246t225 86q146 0 224.5 -86t78.5 -246v-406q0 -160 -78.5 -246.5t-224.5 -86.5q-147 0 -225 86.5t-78 246.5zM231 299q0 -182 150 -182q147 0 147 182v434q0 180 -147 180q-150 0 -150 -180v-434zM281 1157l145 262h178l-196 -262h-127z" />
    <glyph glyph-name="ocircumflex" unicode="&#xf4;" horiz-adv-x="759" 
d="M78 313v406q0 160 78 246t225 86q146 0 224.5 -86t78.5 -246v-406q0 -160 -78.5 -246.5t-224.5 -86.5q-147 0 -225 86.5t-78 246.5zM141 1157l160 262h162l158 -262h-125l-115 172l-113 -172h-127zM231 299q0 -182 150 -182q147 0 147 182v434q0 180 -147 180
q-150 0 -150 -180v-434z" />
    <glyph glyph-name="otilde" unicode="&#xf5;" horiz-adv-x="759" 
d="M78 313v406q0 160 78 246t225 86q146 0 224.5 -86t78.5 -246v-406q0 -160 -78.5 -246.5t-224.5 -86.5q-147 0 -225 86.5t-78 246.5zM133 1233q65 151 164 151q51 0 109 -43q43 -30 65 -30q46 0 80 82l84 -47q-65 -152 -164 -152q-54 0 -109 43q-45 31 -65 31
q-46 0 -80 -82zM231 299q0 -182 150 -182q147 0 147 182v434q0 180 -147 180q-150 0 -150 -180v-434z" />
    <glyph glyph-name="odieresis" unicode="&#xf6;" horiz-adv-x="759" 
d="M78 313v406q0 160 78 246t225 86q146 0 224.5 -86t78.5 -246v-406q0 -160 -78.5 -246.5t-224.5 -86.5q-147 0 -225 86.5t-78 246.5zM180 1178v221h144v-221h-144zM231 299q0 -182 150 -182q147 0 147 182v434q0 180 -147 180q-150 0 -150 -180v-434zM438 1178v221h144
v-221h-144z" />
    <glyph glyph-name="divide" unicode="&#xf7;" 
d="M59 553v123h697v-123h-697zM326 217v203h163v-203h-163zM326 811v201h163v-201h-163z" />
    <glyph glyph-name="oslash" unicode="&#xf8;" horiz-adv-x="759" 
d="M78 313v406q0 160 78 246t225 86q109 0 180 -47l41 86l78 -39l-53 -113q57 -83 57 -219v-406q0 -160 -78.5 -246.5t-224.5 -86.5q-110 0 -180 49l-41 -86l-78 39l53 112q-57 80 -57 219zM231 299l265 563q-34 51 -115 51q-150 0 -150 -180v-434zM264 168q39 -51 117 -51
q147 0 147 182v428z" />
    <glyph glyph-name="ugrave" unicode="&#xf9;" horiz-adv-x="788" 
d="M90 279v751h156v-733q0 -180 129 -180q73 0 117.5 60.5t44.5 168.5v684h153v-1030h-133l-2 137q-65 -157 -227 -157q-238 0 -238 299zM170 1419h178l144 -262h-125z" />
    <glyph glyph-name="uacute" unicode="&#xfa;" horiz-adv-x="788" 
d="M90 279v751h156v-733q0 -180 129 -180q73 0 117.5 60.5t44.5 168.5v684h153v-1030h-133l-2 137q-65 -157 -227 -157q-238 0 -238 299zM291 1157l145 262h178l-196 -262h-127z" />
    <glyph glyph-name="ucircumflex" unicode="&#xfb;" horiz-adv-x="788" 
d="M90 279v751h156v-733q0 -180 129 -180q73 0 117.5 60.5t44.5 168.5v684h153v-1030h-133l-2 137q-65 -157 -227 -157q-238 0 -238 299zM152 1157l159 262h162l158 -262h-125l-115 172l-112 -172h-127z" />
    <glyph glyph-name="udieresis" unicode="&#xfc;" horiz-adv-x="788" 
d="M90 279v751h156v-733q0 -180 129 -180q73 0 117.5 60.5t44.5 168.5v684h153v-1030h-133l-2 137q-65 -157 -227 -157q-238 0 -238 299zM190 1178v221h144v-221h-144zM449 1178v221h143v-221h-143z" />
    <glyph glyph-name="yacute" unicode="&#xfd;" horiz-adv-x="727" 
d="M35 1030h158l186 -784l168 784h143l-217 -958l-43 -189q-26 -118 -84 -169.5t-164 -51.5q-66 0 -104 21v133q39 -17 82 -17q55 0 80 22.5t39 84.5l18 82zM264 1157l146 262h178l-197 -262h-127z" />
    <glyph glyph-name="thorn" unicode="&#xfe;" horiz-adv-x="786" 
d="M98 -317v1751h154v-506q70 123 211 123q242 0 242 -297v-475q0 -299 -242 -299q-141 0 -211 122v-419h-154zM252 346q0 -108 45.5 -168.5t120.5 -60.5q131 0 131 174v450q0 172 -131 172q-75 0 -120.5 -60.5t-45.5 -168.5v-338z" />
    <glyph glyph-name="ydieresis" unicode="&#xff;" horiz-adv-x="727" 
d="M35 1030h158l186 -784l168 784h143l-217 -958l-43 -189q-26 -118 -84 -169.5t-164 -51.5q-66 0 -104 21v133q39 -17 82 -17q55 0 80 22.5t39 84.5l18 82zM164 1178v221h143v-221h-143zM422 1178v221h143v-221h-143z" />
    <glyph glyph-name="OE" unicode="&#x152;" horiz-adv-x="1204" 
d="M82 348v737q0 349 324 349h755v-146h-428v-467h348v-145h-348v-531h428v-145h-755q-324 0 -324 348zM242 342q0 -104 40 -150.5t128 -46.5h163v1143h-163q-88 0 -128 -45t-40 -149v-752z" />
    <glyph glyph-name="oe" unicode="&#x153;" horiz-adv-x="1212" 
d="M78 313v406q0 160 75.5 246t215.5 86q177 0 239 -138q62 138 242 138q140 0 215.5 -86t75.5 -246v-227h-455v-193q0 -182 152 -182q155 0 155 182v31h148v-17q0 -160 -75.5 -246.5t-215.5 -86.5q-177 0 -242 139q-65 -139 -239 -139q-140 0 -215.5 86.5t-75.5 246.5z
M233 299q0 -182 150 -182q149 0 149 182v434q0 180 -149 180q-150 0 -150 -180v-434zM686 618h303v115q0 180 -151 180q-152 0 -152 -180v-115z" />
    <glyph glyph-name="Ydieresis" unicode="&#x178;" horiz-adv-x="796" 
d="M31 1434h170l205 -598l204 598h158l-289 -805v-629h-160v629zM199 1561v221h143v-221h-143zM457 1561v221h143v-221h-143z" />
    <glyph glyph-name="circumflex" unicode="&#x2c6;" horiz-adv-x="1024" 
d="M272 1157l160 262h162l158 -262h-125l-115 172l-113 -172h-127z" />
    <glyph glyph-name="tilde" unicode="&#x2dc;" horiz-adv-x="1024" 
d="M264 1233q65 151 164 151q51 0 109 -43q44 -30 65 -30q46 0 80 82l84 -47q-65 -152 -164 -152q-53 0 -108 43q-45 31 -66 31q-46 0 -80 -82z" />
    <glyph glyph-name="uni2000" unicode="&#x2000;" horiz-adv-x="932" 
 />
    <glyph glyph-name="uni2001" unicode="&#x2001;" horiz-adv-x="1864" 
 />
    <glyph glyph-name="uni2002" unicode="&#x2002;" horiz-adv-x="932" 
 />
    <glyph glyph-name="uni2003" unicode="&#x2003;" horiz-adv-x="1864" 
 />
    <glyph glyph-name="uni2004" unicode="&#x2004;" horiz-adv-x="621" 
 />
    <glyph glyph-name="uni2005" unicode="&#x2005;" horiz-adv-x="466" 
 />
    <glyph glyph-name="uni2006" unicode="&#x2006;" horiz-adv-x="310" 
 />
    <glyph glyph-name="uni2007" unicode="&#x2007;" horiz-adv-x="310" 
 />
    <glyph glyph-name="uni2008" unicode="&#x2008;" horiz-adv-x="233" 
 />
    <glyph glyph-name="uni2009" unicode="&#x2009;" horiz-adv-x="372" 
 />
    <glyph glyph-name="uni200A" unicode="&#x200a;" horiz-adv-x="103" 
 />
    <glyph glyph-name="uni2010" unicode="&#x2010;" horiz-adv-x="542" 
d="M61 549v131h420v-131h-420z" />
    <glyph glyph-name="uni2011" unicode="&#x2011;" horiz-adv-x="542" 
d="M61 549v131h420v-131h-420z" />
    <glyph glyph-name="figuredash" unicode="&#x2012;" horiz-adv-x="542" 
d="M61 549v131h420v-131h-420z" />
    <glyph glyph-name="endash" unicode="&#x2013;" horiz-adv-x="614" 
d="M0 555v119h614v-119h-614z" />
    <glyph glyph-name="emdash" unicode="&#x2014;" horiz-adv-x="1024" 
d="M0 555v119h1024v-119h-1024z" />
    <glyph glyph-name="quoteleft" unicode="&#x2018;" horiz-adv-x="374" 
d="M106 1010v190l101 238h76l-72 -221h57v-207h-162z" />
    <glyph glyph-name="quoteright" unicode="&#x2019;" horiz-adv-x="374" 
d="M94 1008l70 221h-58v205h162v-191l-100 -235h-74z" />
    <glyph glyph-name="quotesinglbase" unicode="&#x201a;" horiz-adv-x="374" 
d="M94 -221l70 221h-58v207h162v-191l-100 -237h-74z" />
    <glyph glyph-name="quotedblleft" unicode="&#x201c;" horiz-adv-x="632" 
d="M106 1008v190l101 236h76l-72 -222h57v-204h-162zM365 1008v190l100 236h76l-72 -222h57v-204h-161z" />
    <glyph glyph-name="quotedblright" unicode="&#x201d;" horiz-adv-x="632" 
d="M94 1008l70 221h-58v205h162v-191l-100 -235h-74zM350 1008l72 221h-57v205h161v-191l-100 -235h-76z" />
    <glyph glyph-name="quotedblbase" unicode="&#x201e;" horiz-adv-x="632" 
d="M94 -221l70 221h-58v207h162v-191l-100 -237h-74zM350 -221l72 221h-57v207h161v-191l-100 -237h-76z" />
    <glyph glyph-name="bullet" unicode="&#x2022;" horiz-adv-x="614" 
d="M178 614q0 55 37.5 92t91.5 37q55 0 92 -36.5t37 -92.5q0 -54 -37 -91.5t-92 -37.5q-54 0 -91.5 37.5t-37.5 91.5z" />
    <glyph glyph-name="ellipsis" unicode="&#x2026;" horiz-adv-x="1024" 
d="M90 0v207h162v-207h-162zM432 0v207h162v-207h-162zM774 0v207h162v-207h-162z" />
    <glyph glyph-name="uni202F" unicode="&#x202f;" horiz-adv-x="372" 
 />
    <glyph glyph-name="guilsinglleft" unicode="&#x2039;" horiz-adv-x="366" 
d="M55 614l133 205h119l-104 -205l104 -213h-119z" />
    <glyph glyph-name="guilsinglright" unicode="&#x203a;" horiz-adv-x="366" 
d="M59 401l105 213l-105 205h119l133 -205l-133 -213h-119z" />
    <glyph glyph-name="uni205F" unicode="&#x205f;" horiz-adv-x="466" 
 />
    <glyph glyph-name="Euro" unicode="&#x20ac;" 
d="M53 582v94h70v135h-70v92h70v203q0 168 81 258t236 90t236.5 -90t81.5 -258v-78h-152v88q0 193 -162 193q-161 0 -161 -193v-213h348v-92h-348v-135h348v-94h-348v-265q0 -192 161 -192q162 0 162 192v138h152v-127q0 -167 -82 -257.5t-236 -90.5t-235.5 90.5
t-81.5 257.5v254h-70z" />
    <glyph glyph-name="trademark" unicode="&#x2122;" horiz-adv-x="1226" 
d="M29 1333v101h436v-101h-162v-628h-110v628h-164zM557 705v729h160l131 -527l129 527h162v-729h-105v591l-147 -591h-84l-150 591v-591h-96z" />
    <glyph glyph-name="uni25FC" unicode="&#x25fc;" horiz-adv-x="1034" 
d="M0 0v1034h1034v-1034h-1034z" />
    </font>
</defs>
</svg>
